<?xml version="1.0" encoding="utf-8"?>
<svg viewBox="17.905 -69.828 500 500" xmlns="http://www.w3.org/2000/svg">
  <defs>
    <clipPath id="clip-0">
      <ellipse style="stroke: rgb(0, 0, 0); paint-order: fill markers; fill: rgb(255, 195, 0); stroke-width: 0px;" cx="411.373" cy="90.939" rx="153.713" ry="153.713"/>
    </clipPath>
  </defs>
  <ellipse style="stroke: rgb(0, 0, 0); paint-order: fill markers; fill: rgb(255, 195, 0); stroke-width: 0px;" cx="267.939" cy="178.761" rx="248.863" ry="248.863"/>
  <g transform="matrix(1.619006, 0, 0, 1.619006, -398.719299, 31.452982)" style="clip-path: url(#clip-0);">
    <path fill="#171723" opacity="1.000000" stroke="none" d="M 71.779 16.091 C 73.476 15.664 75.172 14.865 76.869 14.864 C 134.816 14.805 192.767 14.404 250.706 15.045 C 272.03 15.28 290.967 23.144 307.228 37.812 C 324.35 53.257 332.951 72.567 336.395 94.697 C 337.131 99.427 336.829 104.319 337.026 110.013 C 336.883 111.706 336.72 112.522 336.14 113.31 C 331.311 112.513 326.911 111.667 322.485 110.991 C 307.938 108.772 293.714 111.723 279.398 113.619 C 253.804 117.01 234.823 129.94 224.533 153.563 C 219.553 164.994 217.281 177.631 214.077 189.8 C 212.263 196.688 211.045 203.733 209.362 210.801 C 209.164 210.894 208.8 211.135 208.342 211.044 C 189.74 210.93 171.595 211.033 153.455 210.8 C 148.511 210.736 143.382 210.328 138.678 208.932 C 116.191 202.258 98.115 189.456 85.724 169.235 C 77.4 155.654 72.538 141.083 72.497 124.932 C 72.404 88.651 72.035 52.371 71.779 16.091 Z"/>
    <path fill="#FAEABB" opacity="1.000000" stroke="none" d="M 208.8 211.135 C 208.8 211.135 209.164 210.894 209.845 210.876 C 221.518 210.839 232.513 210.648 243.501 210.835 C 264.023 211.184 282.884 205.898 298.886 193.018 C 324.172 172.667 336.167 145.652 336.557 113.339 C 336.72 112.522 336.883 111.706 337.104 110.472 C 364.289 119.331 373.658 139.562 371.452 167.385 C 381.941 164.178 389.304 158.273 393.447 149.158 C 400.959 132.631 399.061 116.135 391.971 99.892 C 387.997 90.786 382.309 81.942 380.655 72.414 C 377.379 53.541 377.138 34.127 381.383 15.325 C 387.843 -13.29 416.297 -31.075 446.228 -26.492 C 465.098 -23.602 480.028 -14.562 487.871 3.042 C 493.984 16.764 495.83 31.344 486.575 44.996 C 485.018 47.292 482.715 49.082 480.159 51.45 C 466.962 52.167 454.365 52.604 441.764 52.893 C 432.676 53.1 425.134 57.4 422.786 63.958 C 419.433 73.324 422.226 84.249 429.479 90.137 C 444.336 109.917 444.088 132.12 438.526 154.494 C 430.533 186.643 408.545 204.274 376.512 209.292 C 368.556 210.538 360.01 208.803 351.854 207.621 C 348.36 207.115 345.781 207.134 343.263 209.614 C 339.481 213.338 335.459 216.825 331.766 220.633 C 320.195 232.569 306.542 241.235 290.817 246.466 C 278.65 250.513 278.597 250.29 278.584 262.981 C 278.563 282.639 278.665 302.299 278.359 321.953 C 278.283 326.859 279.82 328.524 284.587 328.062 C 288.053 327.726 291.579 327.936 295.076 327.998 C 307.035 328.208 315.618 336.321 316.586 348.277 C 317.436 358.783 310.046 368.156 297.936 368.896 C 282.381 369.847 266.713 368.947 250.429 368.591 C 237.965 362.564 232.646 353.123 233.62 340.033 C 233.779 337.891 233.48 335.715 233.49 333.15 C 233.753 310.866 233.919 288.986 234.085 267.107 C 234.165 256.679 234.164 256.682 223.583 256.141 C 223.09 256.116 222.603 255.981 221.785 255.613 C 217.587 255.222 213.719 255.114 209.652 254.681 C 208.929 252.338 207.933 250.314 207.958 248.303 C 208.111 235.912 208.494 223.524 208.8 211.135 M 447.605 15.771 C 446.34 14.985 445.157 14.002 443.798 13.446 C 433.476 9.219 421.299 15.365 420.699 25.04 C 420.24 32.437 423.654 37.54 430.633 39.885 C 438.173 42.419 445.627 40.259 449.748 34.346 C 454.091 28.115 453.614 22.831 447.605 15.771 Z"/>
    <path fill="#F8C682" opacity="1.000000" stroke="none" d="M 208.342 211.044 C 208.494 223.524 208.111 235.912 207.958 248.303 C 207.933 250.314 208.929 252.338 209.316 254.929 C 207.39 255.676 205.603 255.971 203.811 256.003 C 194.755 256.169 185.697 256.267 176.639 256.389 C 166.684 256.323 156.686 256.821 146.781 256.083 C 120.413 254.121 97.347 244.201 77.154 226.943 C 56.545 209.329 42.583 187.443 34.336 161.982 C 31.301 152.61 29.463 142.48 29.225 132.644 C 28.566 105.351 29.054 78.031 29.051 50.722 C 29.049 38.63 33.419 28.409 43.241 21.393 C 47.178 18.581 52.507 17.295 57.401 16.372 C 61.742 15.552 66.358 16.197 71.316 16.143 C 72.035 52.371 72.404 88.651 72.497 124.932 C 72.538 141.083 77.4 155.654 85.724 169.235 C 98.115 189.456 116.191 202.258 138.678 208.932 C 143.382 210.328 148.511 210.736 153.455 210.8 C 171.595 211.033 189.74 210.93 208.342 211.044 Z"/>
    <path fill="#ED864A" opacity="1.000000" stroke="none" d="M 176.672 256.829 C 185.697 256.267 194.755 256.169 203.811 256.003 C 205.603 255.971 207.39 255.676 209.514 255.255 C 213.719 255.114 217.587 255.222 221.717 256.093 C 221.936 278.452 221.835 300.048 221.884 321.644 C 221.902 329.377 225.869 333.298 233.393 333.554 C 233.48 335.715 233.779 337.891 233.62 340.033 C 232.646 353.123 237.965 362.564 250.002 368.602 C 233.264 368.931 216.282 369.332 199.317 368.95 C 186.625 368.665 175.996 355.949 176.047 341.619 C 176.124 319.993 176.563 298.369 176.792 276.744 C 176.86 270.253 176.739 263.761 176.672 256.829 Z"/>
    <path fill="#ED864A" opacity="1.000000" stroke="none" d="M 429.953 90.081 C 422.226 84.249 419.433 73.324 422.786 63.958 C 425.134 57.4 432.676 53.1 441.764 52.893 C 454.365 52.604 466.962 52.167 479.993 51.737 C 493.368 54.15 501.958 64.226 501.749 76.693 C 501.616 84.624 497.711 88.783 489.784 88.89 C 477.137 89.061 464.486 88.884 451.839 89.065 C 444.699 89.167 437.564 89.691 429.953 90.081 Z"/>
    <path fill="#26907F" opacity="1.000000" stroke="none" d="M 336.14 113.31 C 336.167 145.652 324.172 172.667 298.886 193.018 C 282.884 205.898 264.023 211.184 243.501 210.835 C 232.513 210.648 221.518 210.839 210.042 210.783 C 211.045 203.733 212.263 196.688 214.077 189.8 C 217.281 177.631 219.553 164.994 224.533 153.563 C 234.823 129.94 253.804 117.01 279.398 113.619 C 293.714 111.723 307.938 108.772 322.485 110.991 C 326.911 111.667 331.311 112.513 336.14 113.31 Z"/>
    <path fill="#9ECB42" opacity="1.000000" stroke="none" d="M 233.49 333.15 C 225.869 333.298 221.902 329.377 221.884 321.644 C 221.835 300.048 221.936 278.452 222.046 256.377 C 222.603 255.981 223.09 256.116 223.583 256.141 C 234.164 256.682 234.165 256.679 234.085 267.107 C 233.919 288.986 233.753 310.866 233.49 333.15 Z"/>
    <path fill="#171723" opacity="1.000000" stroke="none" d="M 447.862 16.028 C 453.614 22.831 454.091 28.115 449.748 34.346 C 445.627 40.259 438.173 42.419 430.633 39.885 C 423.654 37.54 420.24 32.437 420.699 25.04 C 421.299 15.365 433.476 9.219 443.798 13.446 C 445.157 14.002 446.34 14.985 447.862 16.028 Z"/>
  </g>
</svg>