<svg version="1.1" id="Layer_1" xmlns="http://www.w3.org/2000/svg" xmlns:xlink="http://www.w3.org/1999/xlink" x="0px" y="0px"
	 width="100%" viewBox="0 0 1024 1024" enable-background="new 0 0 1024 1024" xml:space="preserve">
<path fill="#9ECB42" opacity="1.000000" stroke="none" 
	d="
M945.000000,1025.000000 
	C630.366089,1025.000000 315.732117,1025.000000 1.049093,1025.000000 
	C1.049093,683.734924 1.049093,342.469788 1.049093,1.102346 
	C342.229584,1.102346 683.459229,1.102346 1025.000000,1.102346 
	C1025.000000,336.694641 1025.000000,672.389343 1024.535889,1008.488159 
	C1019.081116,1008.892029 1014.090393,1008.891846 1008.626221,1008.899841 
	C1003.279114,1008.908020 998.405579,1008.908020 993.000000,1008.908020 
	C993.000000,1014.834412 993.000000,1019.917236 993.000000,1025.000000 
	C987.971924,1025.000000 982.943848,1025.000000 977.522217,1024.536133 
	C977.144592,1020.239868 977.091125,1016.405579 977.200806,1012.575989 
	C977.273010,1010.056946 976.316589,1008.924255 973.701477,1009.026672 
	C969.542847,1009.189453 965.376770,1009.162720 960.735718,1009.164612 
	C956.797607,1009.089355 953.313232,1009.314087 949.883911,1008.977905 
	C945.755493,1008.573120 944.744141,1010.422607 944.984924,1014.128174 
	C945.219482,1017.737244 945.012939,1021.374878 945.000000,1025.000000 
M437.883270,618.179077 
	C437.917358,624.670410 438.038208,631.162720 437.969666,637.652954 
	C437.741241,659.278320 437.301727,680.902405 437.225281,702.527954 
	C437.174591,716.858826 447.803101,729.574280 460.495331,729.859680 
	C477.459808,730.241150 494.441864,729.840637 512.271790,729.753113 
	C527.891052,729.855957 543.559021,730.756287 559.113831,729.805359 
	C571.224426,729.065002 578.614014,719.692322 577.763916,709.186462 
	C576.796448,697.230103 568.212830,689.117310 556.254272,688.907166 
	C552.756897,688.845703 549.231445,688.635254 545.765198,688.971313 
	C540.997742,689.433655 539.461121,687.768677 539.537415,682.862610 
	C539.843018,663.208679 539.741516,643.548096 539.762146,623.890015 
	C539.775513,611.199463 539.827698,611.422852 551.995361,607.375061 
	C567.719788,602.144104 581.373169,593.478210 592.944580,581.542480 
	C596.636780,577.734070 600.658936,574.247742 604.441101,570.523560 
	C606.959473,568.043701 609.537903,568.024231 613.031677,568.530579 
	C621.188110,569.712463 629.734070,571.447083 637.690430,570.200867 
	C669.722961,565.183472 691.711304,547.552673 699.703796,515.403076 
	C705.265930,493.029541 705.513855,470.826813 691.604736,450.934418 
	C698.742126,450.600494 705.876770,450.076691 713.017517,449.974396 
	C725.664001,449.793304 738.315491,449.970306 750.962219,449.799164 
	C758.888733,449.691925 762.794250,445.533783 762.927185,437.602448 
	C763.136230,425.135590 754.546082,415.059235 741.935608,412.015228 
	C743.893616,409.991333 746.196411,408.201202 747.752991,405.905121 
	C757.007935,392.253143 755.162354,377.673431 749.049133,363.951721 
	C741.205994,346.347351 726.275818,337.307251 707.406372,334.417664 
	C677.474854,329.834106 649.021545,347.619019 642.561157,376.234802 
	C638.316589,395.035889 638.557556,414.450775 641.833618,433.323395 
	C643.487549,442.851440 649.174988,451.695801 653.149231,460.801056 
	C660.239197,477.044342 662.137634,493.540741 654.625488,510.067230 
	C650.482117,519.182556 643.119324,525.087280 632.630066,528.294250 
	C634.835999,500.471832 625.467590,480.239899 598.183289,470.045410 
	C598.007202,465.228333 598.309631,460.336761 597.573486,455.606842 
	C594.129028,433.476044 585.528625,414.166443 568.406311,398.721466 
	C552.145447,384.053650 533.207703,376.189667 511.884216,375.954041 
	C453.944824,375.313812 395.993805,375.713959 338.047455,375.772949 
	C336.350403,375.774689 334.654114,376.573212 332.030945,377.104218 
	C327.536346,377.105988 322.919800,376.461609 318.579529,377.280914 
	C313.684906,378.204834 308.356384,379.490417 304.419312,382.302582 
	C294.596954,389.318420 290.227631,399.539856 290.228973,411.631470 
	C290.232025,438.940643 289.744537,466.260590 290.403595,493.553284 
	C290.641113,503.389404 292.478973,513.519775 295.514526,522.891357 
	C303.761658,548.352356 317.723511,570.238586 338.332336,587.852234 
	C358.524750,605.109985 381.591461,615.030579 407.958923,616.992798 
	C417.864410,617.729919 427.861694,617.232727 437.883270,618.179077 
z"/>
<path fill="#F8C682" opacity="1.000000" stroke="none" 
	d="
M945.466858,1025.000000 
	C945.012939,1021.374878 945.219482,1017.737244 944.984924,1014.128174 
	C944.744141,1010.422607 945.755493,1008.573120 949.883911,1008.977905 
	C953.313232,1009.314087 956.797607,1009.089355 960.734497,1009.611084 
	C961.140930,1015.072693 961.070435,1020.036316 961.000000,1025.000000 
	C955.977905,1025.000000 950.955811,1025.000000 945.466858,1025.000000 
z"/>
<path fill="#26907F" opacity="1.000000" stroke="none" 
	d="
M961.466858,1025.000000 
	C961.070435,1020.036316 961.140930,1015.072693 961.212646,1009.662598 
	C965.376770,1009.162720 969.542847,1009.189453 973.701477,1009.026672 
	C976.316589,1008.924255 977.273010,1010.056946 977.200806,1012.575989 
	C977.091125,1016.405579 977.144592,1020.239868 977.064331,1024.536133 
	C971.977905,1025.000000 966.955811,1025.000000 961.466858,1025.000000 
z"/>
<path fill="#ED864A" opacity="1.000000" stroke="none" 
	d="
M993.466858,1025.000000 
	C993.000000,1019.917236 993.000000,1014.834412 993.000000,1008.908020 
	C998.405579,1008.908020 1003.279114,1008.908020 1008.598267,1009.377075 
	C1009.029297,1014.897400 1009.014648,1019.948669 1009.000000,1025.000000 
	C1003.977905,1025.000000 998.955811,1025.000000 993.466858,1025.000000 
z"/>
<path fill="#26907F" opacity="1.000000" stroke="none" 
	d="
M1009.471191,1025.000000 
	C1009.014648,1019.948669 1009.029297,1014.897400 1009.071838,1009.368896 
	C1014.090393,1008.891846 1019.081116,1008.892029 1024.535889,1008.946106 
	C1025.000000,1014.258423 1025.000000,1019.516846 1025.000000,1025.000000 
	C1019.982300,1025.000000 1014.962341,1025.000000 1009.471191,1025.000000 
z"/>
<path fill="#171723" opacity="1.000000" stroke="none" 
	d="
M332.957489,377.000244 
	C334.654114,376.573212 336.350403,375.774689 338.047455,375.772949 
	C395.993805,375.713959 453.944824,375.313812 511.884216,375.954041 
	C533.207703,376.189667 552.145447,384.053650 568.406311,398.721466 
	C585.528625,414.166443 594.129028,433.476044 597.573486,455.606842 
	C598.309631,460.336761 598.007202,465.228333 598.203735,470.922302 
	C598.061279,472.615509 597.898315,473.431824 597.318115,474.219421 
	C592.489014,473.422516 588.089050,472.575958 583.663025,471.900635 
	C569.115906,469.681030 554.892029,472.632324 540.576111,474.528717 
	C514.982605,477.919067 496.001282,490.849823 485.711243,514.471924 
	C480.731537,525.903442 478.459137,538.540405 475.254974,550.709045 
	C473.441223,557.597351 472.223206,564.642517 470.539673,571.710266 
	C470.342438,571.803528 469.978485,572.044067 469.519775,571.953674 
	C450.918030,571.839600 432.773407,571.942810 414.633118,571.709106 
	C409.689453,571.645447 404.559967,571.237854 399.855988,569.841736 
	C377.369202,563.167664 359.293457,550.365051 346.901764,530.144775 
	C338.578369,516.562988 333.716095,501.991913 333.674774,485.840881 
	C333.581970,449.560303 333.213654,413.280426 332.957489,377.000244 
z"/>
<path fill="#FAEABB" opacity="1.000000" stroke="none" 
	d="
M469.978485,572.044067 
	C469.978485,572.044067 470.342438,571.803528 471.023163,571.785767 
	C482.695984,571.747986 493.690948,571.557556 504.679535,571.744507 
	C525.200806,572.093628 544.062195,566.807129 560.064636,553.927124 
	C585.349670,533.575867 597.345032,506.561096 597.735352,474.248138 
	C597.898315,473.431824 598.061279,472.615509 598.281982,471.381348 
	C625.467590,480.239899 634.835999,500.471832 632.630066,528.294250 
	C643.119324,525.087280 650.482117,519.182556 654.625488,510.067230 
	C662.137634,493.540741 660.239197,477.044342 653.149231,460.801056 
	C649.174988,451.695801 643.487549,442.851440 641.833618,433.323395 
	C638.557556,414.450775 638.316589,395.035889 642.561157,376.234802 
	C649.021545,347.619019 677.474854,329.834106 707.406372,334.417664 
	C726.275818,337.307251 741.205994,346.347351 749.049133,363.951721 
	C755.162354,377.673431 757.007935,392.253143 747.752991,405.905121 
	C746.196411,408.201202 743.893616,409.991333 741.337219,412.359039 
	C728.140076,413.076355 715.542847,413.513794 702.942139,413.801941 
	C693.854614,414.009735 686.312317,418.309082 683.963989,424.867859 
	C680.611023,434.232941 683.404480,445.158386 690.657410,451.046631 
	C705.513855,470.826813 705.265930,493.029541 699.703796,515.403076 
	C691.711304,547.552673 669.722961,565.183472 637.690430,570.200867 
	C629.734070,571.447083 621.188110,569.712463 613.031677,568.530579 
	C609.537903,568.024231 606.959473,568.043701 604.441101,570.523560 
	C600.658936,574.247742 596.636780,577.734070 592.944580,581.542480 
	C581.373169,593.478210 567.719788,602.144104 551.995361,607.375061 
	C539.827698,611.422852 539.775513,611.199463 539.762146,623.890015 
	C539.741516,643.548096 539.843018,663.208679 539.537415,682.862610 
	C539.461121,687.768677 540.997742,689.433655 545.765198,688.971313 
	C549.231445,688.635254 552.756897,688.845703 556.254272,688.907166 
	C568.212830,689.117310 576.796448,697.230103 577.763916,709.186462 
	C578.614014,719.692322 571.224426,729.065002 559.113831,729.805359 
	C543.559021,730.756287 527.891052,729.855957 511.607422,729.500366 
	C499.143188,723.473267 493.824341,714.032227 494.798065,700.942383 
	C494.957397,698.800171 494.658356,696.623901 494.668091,694.058960 
	C494.931183,671.775024 495.097382,649.895569 495.263550,628.016113 
	C495.342743,617.588745 495.342621,617.591125 484.761139,617.050781 
	C484.268524,617.025574 483.781525,616.890564 482.963074,616.522583 
	C478.765411,616.131104 474.896667,616.023804 470.829712,615.590698 
	C470.107422,613.247070 469.111481,611.223328 469.136292,609.212219 
	C469.289032,596.821289 469.672058,584.433105 469.978485,572.044067 
M708.783081,376.680023 
	C707.518494,375.894531 706.334961,374.911224 704.976501,374.354980 
	C694.654480,370.128296 682.477356,376.274384 681.876953,385.949707 
	C681.417908,393.346619 684.832458,398.449097 691.811157,400.794556 
	C699.351318,403.328705 706.804810,401.168701 710.926453,395.254974 
	C715.268738,389.024536 714.792236,383.740021 708.783081,376.680023 
z"/>
<path fill="#F8C682" opacity="1.000000" stroke="none" 
	d="
M469.519775,571.953674 
	C469.672058,584.433105 469.289032,596.821289 469.136292,609.212219 
	C469.111481,611.223328 470.107422,613.247070 470.494415,615.838501 
	C468.568146,616.585693 466.781189,616.880005 464.989471,616.912842 
	C455.932709,617.078674 446.874695,617.176575 437.817139,617.298279 
	C427.861694,617.232727 417.864410,617.729919 407.958923,616.992798 
	C381.591461,615.030579 358.524750,605.109985 338.332336,587.852234 
	C317.723511,570.238586 303.761658,548.352356 295.514526,522.891357 
	C292.478973,513.519775 290.641113,503.389404 290.403595,493.553284 
	C289.744537,466.260590 290.232025,438.940643 290.228973,411.631470 
	C290.227631,399.539856 294.596954,389.318420 304.419312,382.302582 
	C308.356384,379.490417 313.684906,378.204834 318.579529,377.280914 
	C322.919800,376.461609 327.536346,377.105988 332.494202,377.052246 
	C333.213654,413.280426 333.581970,449.560303 333.674774,485.840881 
	C333.716095,501.991913 338.578369,516.562988 346.901764,530.144775 
	C359.293457,550.365051 377.369202,563.167664 399.855988,569.841736 
	C404.559967,571.237854 409.689453,571.645447 414.633118,571.709106 
	C432.773407,571.942810 450.918030,571.839600 469.519775,571.953674 
z"/>
<path fill="#ED864A" opacity="1.000000" stroke="none" 
	d="
M437.850220,617.738647 
	C446.874695,617.176575 455.932709,617.078674 464.989471,616.912842 
	C466.781189,616.880005 468.568146,616.585693 470.692596,616.164246 
	C474.896667,616.023804 478.765411,616.131104 482.895294,617.002136 
	C483.114471,639.361755 483.012665,660.957764 483.062531,682.553467 
	C483.080414,690.286438 487.047089,694.207031 494.571167,694.463379 
	C494.658356,696.623901 494.957397,698.800171 494.798065,700.942383 
	C493.824341,714.032227 499.143188,723.473267 511.179688,729.511719 
	C494.441864,729.840637 477.459808,730.241150 460.495331,729.859680 
	C447.803101,729.574280 437.174591,716.858826 437.225281,702.527954 
	C437.301727,680.902405 437.741241,659.278320 437.969666,637.652954 
	C438.038208,631.162720 437.917358,624.670410 437.850220,617.738647 
z"/>
<path fill="#ED864A" opacity="1.000000" stroke="none" 
	d="
M691.131104,450.990540 
	C683.404480,445.158386 680.611023,434.232941 683.963989,424.867859 
	C686.312317,418.309082 693.854614,414.009735 702.942139,413.801941 
	C715.542847,413.513794 728.140076,413.076355 741.171204,412.646118 
	C754.546082,415.059235 763.136230,425.135590 762.927185,437.602448 
	C762.794250,445.533783 758.888733,449.691925 750.962219,449.799164 
	C738.315491,449.970306 725.664001,449.793304 713.017517,449.974396 
	C705.876770,450.076691 698.742126,450.600494 691.131104,450.990540 
z"/>
<path fill="#26907F" opacity="1.000000" stroke="none" 
	d="
M597.318115,474.219421 
	C597.345032,506.561096 585.349670,533.575867 560.064636,553.927124 
	C544.062195,566.807129 525.200806,572.093628 504.679535,571.744507 
	C493.690948,571.557556 482.695984,571.747986 471.220398,571.692505 
	C472.223206,564.642517 473.441223,557.597351 475.254974,550.709045 
	C478.459137,538.540405 480.731537,525.903442 485.711243,514.471924 
	C496.001282,490.849823 514.982605,477.919067 540.576111,474.528717 
	C554.892029,472.632324 569.115906,469.681030 583.663025,471.900635 
	C588.089050,472.575958 592.489014,473.422516 597.318115,474.219421 
z"/>
<path fill="#9ECB42" opacity="1.000000" stroke="none" 
	d="
M494.668091,694.058960 
	C487.047089,694.207031 483.080414,690.286438 483.062531,682.553467 
	C483.012665,660.957764 483.114471,639.361755 483.224182,617.286316 
	C483.781525,616.890564 484.268524,617.025574 484.761139,617.050781 
	C495.342621,617.591125 495.342743,617.588745 495.263550,628.016113 
	C495.097382,649.895569 494.931183,671.775024 494.668091,694.058960 
z"/>
<path fill="#171723" opacity="1.000000" stroke="none" 
	d="
M709.040405,376.936981 
	C714.792236,383.740021 715.268738,389.024536 710.926453,395.254974 
	C706.804810,401.168701 699.351318,403.328705 691.811157,400.794556 
	C684.832458,398.449097 681.417908,393.346619 681.876953,385.949707 
	C682.477356,376.274384 694.654480,370.128296 704.976501,374.354980 
	C706.334961,374.911224 707.518494,375.894531 709.040405,376.936981 
z"/>
</svg>